<?xml version="1.0" encoding="UTF-8"?>
<!DOCTYPE svg PUBLIC "-//W3C//DTD SVG 1.1//EN" "http://www.w3.org/Graphics/SVG/1.1/DTD/svg11.dtd">
<!-- Creator: CorelDRAW X6 -->
<svg xmlns="http://www.w3.org/2000/svg" xml:space="preserve" width="77.1667in" height="21.6667in" version="1.1" style="shape-rendering:geometricPrecision; text-rendering:geometricPrecision; image-rendering:optimizeQuality; fill-rule:evenodd; clip-rule:evenodd"
viewBox="0 0 77167 21667"
 xmlns:xlink="http://www.w3.org/1999/xlink">
 <defs>
  <style type="text/css">
   <![CDATA[
    .fil0 {fill:none;fill-rule:nonzero}
   ]]>
  </style>
 </defs>
 <g id="Layer_x0020_1">
  <metadata id="CorelCorpID_0Corel-Layer"/>
  <g id="_153647536">
   <path class="fil0" d="M25375 1972c-61,0 -111,50 -111,111 0,61 50,111 111,111 61,0 111,-50 111,-111 0,-61 -50,-111 -111,-111zm0 167l0 0c-8,0 -14,-6 -14,-14 0,-8 6,-14 14,-14 8,0 14,6 14,14 0,8 -6,14 -14,14zm14 -42l0 0 -28 0 0 -69 28 0 0 69z"/>
  </g>
 </g>
</svg>
